<svg xmlns="http://www.w3.org/2000/svg" viewBox="0 0 223 61"><defs><style>.cls-1{fill:#e63739}.cls-2{fill:#6e963c}.cls-3{fill:#007cb9}.cls-4{fill:#00304b}</style></defs><title>Asset 1</title><g data-name="Layer 1"><path class="cls-1" d="M24.43 46.12V30a3.61 3.61 0 0 1-3.09-3.57v-.3a.72.72 0 0 0-.1-.41 1.78 1.78 0 0 0-.67-.44l-11.86-4.6-.48-.18a2.79 2.79 0 0 0-1.11-.26 1.35 1.35 0 0 0-.81.32 3.6 3.6 0 1 1 .9-2.36 1.34 1.34 0 0 0 .38.8 2.86 2.86 0 0 0 1 .55l.47.18 11.74 4.5.14.05a1.77 1.77 0 0 0 .79.12h.09a1.75 1.75 0 0 0-.45-.71l-9.15-8.84-.37-.36a2.83 2.83 0 0 0-.92-.67 1.36 1.36 0 0 0-.87 0A3.6 3.6 0 1 1 11.81 12a1.35 1.35 0 0 0 0 .89 2.86 2.86 0 0 0 .71.9l.36.35 9 8.73.11.11a1.79 1.79 0 0 0 .68.42h.1a1.73 1.73 0 0 0-.14-.83l-5-11.71-.2-.48a2.8 2.8 0 0 0-.58-1A1.35 1.35 0 0 0 16.2 9a3.6 3.6 0 1 1 2.32-1 1.34 1.34 0 0 0-.31.83 2.87 2.87 0 0 0 .3 1.11l.2.46L23.63 22l.06.14a1.78 1.78 0 0 0 .47.65h.09a1.74 1.74 0 0 0 .2-.82V8.76a2.83 2.83 0 0 0-.15-1.13 1.35 1.35 0 0 0-.6-.63 3.6 3.6 0 1 1 2.53 0 1.34 1.34 0 0 0-.61.65 2.86 2.86 0 0 0-.15 1.14V22a1.75 1.75 0 0 0 .17.78.1.1 0 0 0 .11 0 1.78 1.78 0 0 0 .46-.65l.06-.14 4.91-11.57.2-.46a2.87 2.87 0 0 0 .31-1.11 1.33 1.33 0 0 0-.32-.85 3.6 3.6 0 1 1 2.33 1 1.37 1.37 0 0 0-.79.36 2.83 2.83 0 0 0-.58 1l-.2.48-5 11.71a1.76 1.76 0 0 0-.15.79.1.1 0 0 0 .11 0 1.78 1.78 0 0 0 .68-.42l.11-.11 9-8.73.36-.35a2.86 2.86 0 0 0 .71-.9 1.32 1.32 0 0 0 0-.89 3.6 3.6 0 1 1 1.75 1.82 1.37 1.37 0 0 0-.87 0 2.84 2.84 0 0 0-.92.67l-.37.36-9.15 8.84a1.77 1.77 0 0 0-.44.67.1.1 0 0 0 .08.08 1.78 1.78 0 0 0 .79-.12l.14-.05 11.73-4.5.47-.18a2.83 2.83 0 0 0 1-.55 1.33 1.33 0 0 0 .38-.8 3.6 3.6 0 1 1 .9 2.36 1.36 1.36 0 0 0-.81-.32 2.79 2.79 0 0 0-1.11.26l-.48.18-11.73 4.58a1.75 1.75 0 0 0-.67.44.79.79 0 0 0-.1.49.89.89 0 0 1 0 .15v.07A3.61 3.61 0 0 1 25.46 30v16.12z"/><path class="cls-2" d="M26.66 35.63c7.08-3.38 14.58-6.51 22.34-7.88 1.25 3.33-2.71 5.64-5.17 6.86-5.13 2.24-11.84 3.1-17.18 1m-3.15-.73c-7-3.41-14.5-6.52-22.25-7.72 2.22-2.93 6.58-2.72 9.8-2.08a19.15 19.15 0 0 1 12.45 9.8m-.22.73c-5.33 2.08-12 1.22-17.18-1-2.45-1.23-6.41-3.54-5.16-6.86 7.76 1.37 15.26 4.5 22.34 7.88m3.15-.73a19.15 19.15 0 0 1 12.45-9.8c3.21-.63 7.58-.85 9.8 2.08-7.74 1.2-15.24 4.31-22.25 7.72"/><path class="cls-3" d="M49.89 54.4a16.07 16.07 0 0 1-5.78 1.15 15.87 15.87 0 0 1-9.58-3.36 16 16 0 0 1-9.61 3.36 15.86 15.86 0 0 1-9.58-3.36 16 16 0 0 1-9.61 3.36A16 16 0 0 1 0 54.41V51.7a14.34 14.34 0 0 0 5.74 1.23 14.91 14.91 0 0 0 9.61-3.66 14.81 14.81 0 0 0 9.58 3.66 14.91 14.91 0 0 0 9.61-3.66 14.81 14.81 0 0 0 9.58 3.66 14.46 14.46 0 0 0 5.78-1.24zm0 4.44A16.1 16.1 0 0 1 44.12 60a15.86 15.86 0 0 1-9.58-3.36A16 16 0 0 1 24.93 60a15.86 15.86 0 0 1-9.58-3.36A16 16 0 0 1 5.74 60 16 16 0 0 1 0 58.84v-2.7a14.33 14.33 0 0 0 5.74 1.23 14.91 14.91 0 0 0 9.61-3.66 14.81 14.81 0 0 0 9.58 3.66 14.91 14.91 0 0 0 9.61-3.66 14.81 14.81 0 0 0 9.58 3.66 14.44 14.44 0 0 0 5.78-1.24zM32.84 45.88a7.76 7.76 0 0 0 1.7-2 7.87 7.87 0 0 0 1.7 2 12.73 12.73 0 0 0 7.88 2.85 13.15 13.15 0 0 0 5.78-1.44v2.77a15.66 15.66 0 0 1-5.78 1.19 15.3 15.3 0 0 1-9.58-3.51 15.41 15.41 0 0 1-9.61 3.51 15.3 15.3 0 0 1-9.58-3.51 15.42 15.42 0 0 1-9.61 3.51A15.53 15.53 0 0 1 0 50.08v-2.77a13 13 0 0 0 5.74 1.43 12.85 12.85 0 0 0 7.91-2.85 7.85 7.85 0 0 0 1.7-2 7.84 7.84 0 0 0 1.7 2 12.73 12.73 0 0 0 7.87 2.85 12.84 12.84 0 0 0 7.91-2.85"/><path class="cls-4" d="M190 13.57v9a6.78 6.78 0 0 0 .41 2.56 8.49 8.49 0 0 1-2.05-.09c-.74-.14-1.38-.43-1.38-1v-.5a4.31 4.31 0 0 1-3.59 1.92c-3.37 0-4.21-1.9-4.21-4.75v-7.14h3.17v6.51c0 1.89.56 2.83 2 2.83 1.72 0 2.45-1 2.45-3.3v-6zm1.1 11.53V13.57h3v1.6a4.31 4.31 0 0 1 3.59-1.92c3.37 0 4.21 1.89 4.21 4.75v5.6a1.89 1.89 0 0 0 .41 1.51 10.23 10.23 0 0 1-1.67 0c-.93-.09-1.9-.36-1.9-1.1v-5.42c0-1.89-.56-2.83-2-2.83-1.72 0-2.45 1-2.45 3.3v6zm27.86-1v-15h3.17v13.45a6.08 6.08 0 0 0 .4 2.56 10.18 10.18 0 0 1-1.67 0l-.48-.06h-.69c-.45-.2-.69-.42-.74-.74m-1.18-12.33h-3.17v-2.8h3.17zm-3.17 1.79h3.17V25.1h-3.17zm-.76 4.06h-3.1a2.16 2.16 0 0 0-2.34-2c-2 0-2.7 2.05-2.7 3.75s.65 3.63 2.63 3.63a2.44 2.44 0 0 0 2.52-2.34h3.05c-.4 3.05-2.52 4.73-5.55 4.73a5.6 5.6 0 0 1-5.82-5.91c0-3.59 2.14-6.24 5.89-6.24 2.72 0 5.22 1.43 5.42 4.37m-44.1 1.72c0 1.83.65 3.68 2.79 3.68s2.81-1.85 2.81-3.68-.65-3.7-2.81-3.7-2.79 1.85-2.79 3.7m-3.17 0c0-3.68 2.34-6.09 6-6.09s6 2.41 6 6.09-2.34 6.07-6 6.07-6-2.41-6-6.07m-.76-4.82h-3.39a3.44 3.44 0 0 0-3.42-2.97c-3.14 0-4.32 2.68-4.32 5.46s1.18 5.33 4.32 5.33c2.14 0 3.35-1.47 3.61-3.57H166a6.72 6.72 0 0 1-7 6.51c-4.93 0-7.82-3.68-7.82-8.27S154.06 8.8 159 8.8c3.5 0 6.45 2.05 6.87 5.73m-43.63 10.54V13.54h3v1.61a4.3 4.3 0 0 1 3.59-1.92c3.37 0 4.22 1.89 4.22 4.75v5.59a1.89 1.89 0 0 0 .41 1.52 10.47 10.47 0 0 1-1.68 0c-.93-.09-1.9-.36-1.9-1.1v-5.43c0-1.9-.56-2.83-2-2.83-1.72 0-2.45 1-2.45 3.3v6zM82.17 13.54v9a6.75 6.75 0 0 0 .42 2.56 8.44 8.44 0 0 1-2.05-.1c-.74-.14-1.38-.43-1.38-1v-.5a4.31 4.31 0 0 1-3.59 1.92c-3.37 0-4.21-1.89-4.21-4.75v-7.13h3.17v6.51c0 1.9.56 2.83 2 2.83 1.72 0 2.45-1 2.45-3.3v-6zm26.33 11.53L108 25h-.81a1 1 0 0 1-.63-.69V9.15h3.17v13.37a6 6 0 0 0 .4 2.56 10.38 10.38 0 0 1-1.67 0m33.79-5.78c0-1.87-.67-3.66-2.72-3.66s-2.79 1.78-2.79 3.68.83 3.7 2.79 3.7 2.72-1.83 2.72-3.72m1.95 5.8c-.93-.07-2-.31-2.06-1v-.21a4.07 4.07 0 0 1-3.39 1.53c-3.48 0-5.17-3-5.17-6.18s1.72-6 5.11-6a4 4 0 0 1 3.44 1.76V9.2h3.17v13.32a5.87 5.87 0 0 0 .4 2.56 10.36 10.36 0 0 1-1.51 0m-30.35-8h-3.16c.18-3 2.83-3.86 5.42-3.86 2.3 0 5.06.51 5.06 3.28v6a5.91 5.91 0 0 0 .4 2.56s-3.43.3-3.43-1.12a5.29 5.29 0 0 1-3.88 1.43c-2.18 0-3.92-1.09-3.92-3.46 0-2.61 2-3.23 3.92-3.5s3.75-.21 3.75-1.5-.94-1.56-2.05-1.56-2 .49-2.1 1.74m4.15 3.52v-1.18a6.29 6.29 0 0 1-2.63.67c-1 .2-1.87.54-1.87 1.7s.91 1.47 1.94 1.47a2.35 2.35 0 0 0 2.56-2.66m-23.15 4.46V9.15H98v8.54l4-4.15h3.75l-4.35 4.24 4.84 7.29h-1.42c-2.53 0-3.28-1.41-3.28-1.41l-2.3-3.74L98 21.1v4zm-.73-7.47H91a2.16 2.16 0 0 0-2.34-2c-2 0-2.7 2-2.7 3.74S86.62 23 88.61 23a2.43 2.43 0 0 0 2.52-2.34h3.06a5.15 5.15 0 0 1-5.55 4.73 5.6 5.6 0 0 1-5.82-5.91c0-3.59 2.14-6.24 5.89-6.24 2.72 0 5.22 1.43 5.42 4.37m-30.41-4.53l2 5.85h-4.07zm-7.79 12h3.55l1.25-3.55h6s.65 2 .9 2.65c.52 1.37 3.94.9 3.94.9l-6-15.94H62zm14.64 21.3h-2.1V34.82h2.1zm0-13.73h-2.1V30.2h2.1zm8.18 14.06A4.76 4.76 0 0 1 75 45.14v1.24h-2.17V30.17H75v6a4.64 4.64 0 0 1 3.77-1.67c2.46 0 5.34 1.61 5.34 6.15 0 3-1.41 6.1-5.36 6.1m-.31-10.26c-.81 0-3.45.3-3.48 4.15 0 3.13 1.79 4.25 3.46 4.25 2.51 0 3.41-2.25 3.41-4.35 0-2.47-1.33-4.06-3.38-4.06M88 41v-.13a5 5 0 0 1 .46-2.66A2.79 2.79 0 0 1 91 36.94a7.16 7.16 0 0 1 .78 0h.13v-2.27h-.13A4.29 4.29 0 0 0 88 36.55v-1.73h-2.14v11.56H88zm19.13 0v-.13a5 5 0 0 1 .46-2.66 2.79 2.79 0 0 1 2.51-1.29 7.16 7.16 0 0 1 .78 0h.12v-2.25h-.13a4.29 4.29 0 0 0-3.75 1.87v-1.72H105v11.56h2.17zm7.54 5.36h-2.1V34.82h2.1zm0-13.73h-2.1V30.2h2.1zM122 46.72c-3.5 0-5.67-2.38-5.67-6.22 0-4.15 2.9-6 5.6-6a5.07 5.07 0 0 1 5.07 4.07 10.4 10.4 0 0 1 .22 2.33v.1h-8.6a4.41 4.41 0 0 0 1.12 3.06 3.24 3.24 0 0 0 2.41 1 2.9 2.9 0 0 0 2.85-2.57v-.11l2.21.3v.14h-.12l.11.06a5.16 5.16 0 0 1-5.2 3.84m-3.3-7.31h6.19c-.24-3.08-2.63-3.24-3.11-3.24-1.68 0-2.85 1.24-3.08 3.24m15.3 7.33c3.35 0 4.88-1.92 4.88-3.7 0-2.42-2.46-3-3.78-3.36l-1.17-.29c-1.58-.38-2.62-.71-2.62-1.66 0-.74.74-1.54 2.11-1.54a3.36 3.36 0 0 1 2.11.65 1.89 1.89 0 0 1 .77 1.73v.13l2.32-.3v-.12c-.4-2.8-2.83-3.8-5-3.8-2.73 0-4.49 1.37-4.49 3.48 0 2.4 2.15 3 4.16 3.41l1.08.22c1.4.27 2.25.5 2.25 1.68s-.9 1.75-2.54 1.75a3.22 3.22 0 0 1-2.2-.62 2.47 2.47 0 0 1-.8-2.11v-.15l-2.43.38v.12a4.42 4.42 0 0 0 1.73 3.16 6.27 6.27 0 0 0 3.58.94m-37 0a3.79 3.79 0 0 1-4-3.15 2.94 2.94 0 0 1 .31-2.39c.85-1.22 2.79-1.5 4.5-1.73h.14c1.24-.17 2-.3 2.32-.75a1.44 1.44 0 0 0 .08-1.15c-.25-1.13-1.4-1.37-2.32-1.37h-.25a3 3 0 0 0-2.13.82 1.75 1.75 0 0 0-.41 1.34v.06l-2 .1v-.06a3.49 3.49 0 0 1 .8-2.68 4.68 4.68 0 0 1 3.35-1.37h.53c2.47 0 3.93.94 4.35 2.81a8.5 8.5 0 0 1 .12 1.76v4.03a5.12 5.12 0 0 0 .06 1.18c.1.44.32.66.65.64a1.46 1.46 0 0 0 .54-.18h.08v.08a2.16 2.16 0 0 1-.34 1.45 1 1 0 0 1-.77.36 1.68 1.68 0 0 1-1.9-1.54 3.86 3.86 0 0 1-3.45 1.7h-.28m3.46-6.34a8.93 8.93 0 0 1-2.86.8l-.59.11a2.9 2.9 0 0 0-1.87.94 1.53 1.53 0 0 0-.14 1.21 2.1 2.1 0 0 0 2.19 1.46h.15a2.86 2.86 0 0 0 2.8-1.63 5.32 5.32 0 0 0 .32-2.25v-.56m-36.2 6a2.37 2.37 0 0 0 2.46-2.25h-8.22V30.17h-2.5v16.21zm2.8 7.69v4.49a3.23 3.23 0 0 1-.29 1.66 2.12 2.12 0 0 1-1.91.92 2.57 2.57 0 0 1-1.45-.4 1.89 1.89 0 0 1-.73-1.37h.91c0 .55.32 1.12 1.32 1.12a1.36 1.36 0 0 0 1-.34c.29-.31.3-.67.3-1.45v-.56a1.87 1.87 0 0 1-1.56.84 2.23 2.23 0 0 1-2.2-2.49A2.24 2.24 0 0 1 64.65 54a2 2 0 0 1 1.55.79v-.64zm-3.73 2.37a2.11 2.11 0 0 0 .33 1.24 1.41 1.41 0 0 0 1.17.57 1.3 1.3 0 0 0 1.16-.61 2.39 2.39 0 0 0 .31-1.27c0-1.62-1.2-1.73-1.52-1.73-.87 0-1.45.7-1.45 1.8m13.44-.62v3h-.92v-7.11h3.08a3.39 3.39 0 0 1 1.13.12 1.89 1.89 0 0 1 1.22 1.9 2 2 0 0 1-1.31 2 3.71 3.71 0 0 1-1.14.11zm0-.84h2c.55 0 .92 0 1.24-.32a1.33 1.33 0 0 0 .34-.95 1.14 1.14 0 0 0-.37-.91 1.43 1.43 0 0 0-1-.27h-2.2zm11.12-2.42H87v1.5h-.76v.67H87v3.09c0 .63 0 1.08.92 1.08a5.36 5.36 0 0 0 .78-.08v-.67a2 2 0 0 1-.52.11c-.34 0-.34-.24-.34-.81V54.8h.87v-.67h-.87zM114.59 59a2.27 2.27 0 0 1-2.34-2.48 2.33 2.33 0 0 1 2.37-2.52 2.27 2.27 0 0 1 2.29 2.52 2.3 2.3 0 0 1-2.32 2.48m1.41-3.17a1.32 1.32 0 0 0-1.34-1.21c-1.08 0-1.51.84-1.51 1.93s.41 1.83 1.45 1.83c1.34 0 1.44-1.39 1.45-1.88a2.77 2.77 0 0 0-.05-.67m1.86-1.71v4.75h.81v-2.2a2.26 2.26 0 0 1 .2-1.2 1.22 1.22 0 0 1 1.1-.57h.33v-.87a1.73 1.73 0 0 0-1.64.93v-.87zm7.23 3.29a2.16 2.16 0 0 1-2.15 1.6 2.53 2.53 0 0 1 0-5 2.07 2.07 0 0 1 2.06 1.65 4.28 4.28 0 0 1 .09 1h-3.61a1.59 1.59 0 0 0 1.52 1.76 1.26 1.26 0 0 0 1.26-1.11zm-.88-1.36a1.37 1.37 0 0 0-1.36-1.46c-.69 0-1.26.5-1.35 1.46zm1.79-1.92v4.75h.81v-2.2a2.26 2.26 0 0 1 .2-1.2 1.22 1.22 0 0 1 1.1-.57h.33v-.87a1.73 1.73 0 0 0-1.64.93v-.87zm5 4.87a2.27 2.27 0 0 1-2.34-2.48 2.33 2.33 0 0 1 2.42-2.52 2.27 2.27 0 0 1 2.29 2.52A2.3 2.3 0 0 1 131 59m1.39-3.19a1.32 1.32 0 0 0-1.34-1.21c-1.08 0-1.51.84-1.51 1.93s.41 1.83 1.45 1.83c1.34 0 1.44-1.39 1.45-1.88a2.77 2.77 0 0 0-.05-.67M139 59a2.27 2.27 0 0 1-2.34-2.48A2.33 2.33 0 0 1 139 54a2.27 2.27 0 0 1 2.29 2.52A2.3 2.3 0 0 1 139 59m1.39-3.19a1.32 1.32 0 0 0-1.39-1.19c-1.08 0-1.51.84-1.51 1.93s.41 1.83 1.45 1.83c1.34 0 1.44-1.39 1.45-1.88a2.75 2.75 0 0 0-.05-.67m-32-.47l-1 1v2.49h-.95v-7.09h.95v3.46l3.34-3.46h1.17L109 54.69zm.66-.68l2.66 4.19h-.18a2 2 0 0 1-1.24-.39l-1.89-3.13m-25.53-2.46s-.17.58.23.58h1.14c.34 0 .42-.58.42-.58zm1.74 4.73a1.19 1.19 0 0 1-1.17.68.9.9 0 0 1-1-.62c-.13-.6.31-.8.84-.91a4.25 4.25 0 0 0 1.44-.39 3.06 3.06 0 0 1-.13 1.23m.9.35a3.72 3.72 0 0 1 0-.68V56a4.51 4.51 0 0 0 0-.87c-.21-1-1.07-1.17-2-1.12s-1.76.58-1.67 1.63h.77c0-.62.48-.88 1.06-.91.41 0 1 .06 1.08.58s-.21.69-1 .81c-1 .14-2.31.3-2 1.67A1.55 1.55 0 0 0 83.37 59a1.52 1.52 0 0 0 1.43-.74.67.67 0 0 0 .75.64c.51 0 .43-.72.43-.72a.65.65 0 0 1-.23.08c-.12 0-.24-.06-.29-.28m-16.24-5.09s-.17.58.23.58h1.14c.34 0 .42-.58.42-.58zM71 57.63a1.19 1.19 0 0 1-1.17.68.9.9 0 0 1-1-.62c-.13-.6.31-.8.84-.91a4.25 4.25 0 0 0 1.44-.39 3.06 3.06 0 0 1-.11 1.24m.9.35a3.72 3.72 0 0 1 0-.68V56a4.51 4.51 0 0 0 0-.87c-.21-1-1.07-1.17-2-1.12s-1.76.58-1.67 1.63H69c0-.62.48-.88 1.06-.91.41 0 1 .06 1.08.58s-.21.69-1 .81c-1 .14-2.31.3-2 1.67A1.55 1.55 0 0 0 69.77 59a1.52 1.52 0 0 0 1.43-.74.67.67 0 0 0 .75.64c.51 0 .43-.72.43-.72a.65.65 0 0 1-.23.08c-.12 0-.24-.06-.29-.28m41.85-5.09s-.17.58.23.58h1.14c.34 0 .42-.58.42-.58zm-21.43 4.74a1.19 1.19 0 0 1-1.17.68.9.9 0 0 1-1-.62c-.13-.6.31-.8.84-.91a4.25 4.25 0 0 0 1.44-.39 3.06 3.06 0 0 1-.13 1.23m.9.35a3.72 3.72 0 0 1 0-.68V56a4.51 4.51 0 0 0 0-.87c-.21-1-1.07-1.17-2-1.12s-1.76.58-1.67 1.63h.77c0-.62.48-.88 1.06-.91.41 0 1 .06 1.08.58s-.21.69-1 .81c-1 .14-2.31.3-2 1.67A1.55 1.55 0 0 0 91.09 59a1.52 1.52 0 0 0 1.43-.74.67.67 0 0 0 .75.64c.51 0 .43-.72.43-.72a.65.65 0 0 1-.23.08c-.12 0-.24-.06-.29-.28m8.48-.35a1.19 1.19 0 0 1-1.17.68.9.9 0 0 1-1-.62c-.13-.6.31-.8.84-.91a4.25 4.25 0 0 0 1.44-.39 3.06 3.06 0 0 1-.13 1.23m.9.35a3.72 3.72 0 0 1 0-.68V56a4.51 4.51 0 0 0 0-.87c-.21-1-1.07-1.17-2-1.12s-1.76.58-1.67 1.63h.77c0-.62.48-.88 1.06-.91.41 0 1 .06 1.08.58s-.21.69-1 .81c-1 .14-2.31.3-2 1.67a1.55 1.55 0 0 0 1.69 1.21 1.52 1.52 0 0 0 1.43-.74.67.67 0 0 0 .75.64c.51 0 .43-.72.43-.72a.65.65 0 0 1-.23.08c-.12 0-.24-.06-.29-.28m-7.31.9v-1.81l.82-.9 1.35 2.31a1.07 1.07 0 0 0 1 .46h.18l-2-3.27 1.82-1.88h-1.06L95.24 56v-4.24h-.83v7.12zM161 58v-2.36a3 3 0 0 0-.14-1.16 1.52 1.52 0 0 0-1.39-.88 2.41 2.41 0 0 0-1.69.94 1.5 1.5 0 0 0-1.38-.94 1.94 1.94 0 0 0-1.52.84v-.68h-.84v4.47c0 .21.07.58.68.58h.28a6.61 6.61 0 0 1 0-.81v-2.18a1.15 1.15 0 0 1 .33-1 1.49 1.49 0 0 1 .95-.38.9.9 0 0 1 .74.34 1.34 1.34 0 0 1 .19.81v2.7c0 .21.07.54.68.54h.11a6.66 6.66 0 0 1 0-.81v-2.2a1.17 1.17 0 0 1 .3-1 1.44 1.44 0 0 1 1-.43.87.87 0 0 1 .88.63 3.27 3.27 0 0 1 0 .79v2.4c0 .21.07.58.68.58h.21a6.74 6.74 0 0 1 0-.81m22 0v-6.2h-1.21l-2.17 5.53-2.16-5.53h-1.21v6.45c0 .21.1.58.68.58h.29a4.7 4.7 0 0 1-.06-.81v-5l1.77 5.16a.84.84 0 0 0 .81.66h.19l.3-.78 2-5.14-.06 2.89-.05 2.42a.62.62 0 0 0 .68.58h.29A4.69 4.69 0 0 1 183 58m-32.83-5.62s-.18.62.24.62h1.22c.37 0 .45-.62.45-.62zm1.83 5.07a1.28 1.28 0 0 1-1.25.73 1 1 0 0 1-1.05-.66c-.14-.65.34-.86.9-1a4.56 4.56 0 0 0 1.54-.42 3.28 3.28 0 0 1-.14 1.32m1 .38a4 4 0 0 1 0-.73v-1.36a4.81 4.81 0 0 0-.05-.93c-.23-1-1.15-1.25-2.11-1.2s-1.88.62-1.79 1.75h.82c0-.66.51-.95 1.14-1 .44 0 1 .07 1.15.62s-.22.74-1.07.86c-1.08.15-2.48.32-2.15 1.79a1.66 1.66 0 0 0 1.85 1.36 1.63 1.63 0 0 0 1.53-.8.72.72 0 0 0 .81.68c.55 0 .46-.77.46-.77a.69.69 0 0 1-.25.08c-.13 0-.26-.07-.31-.3m18.62-6.06v1h.85v-1zm.82 7v-5.08h-.84v5.09zm-7.53-1.35a1.28 1.28 0 0 1-1.25.73 1 1 0 0 1-1.05-.66c-.14-.65.34-.86.9-1a4.56 4.56 0 0 0 1.54-.42 3.28 3.28 0 0 1-.14 1.32m1 .38a4 4 0 0 1 0-.73v-1.35a4.81 4.81 0 0 0-.05-.93c-.23-1-1.15-1.25-2.11-1.2s-1.88.62-1.79 1.75h.82c0-.66.51-.95 1.14-1 .44 0 1 .07 1.15.62s-.22.74-1.07.86c-1.08.15-2.48.32-2.15 1.79a1.66 1.66 0 0 0 1.85 1.36 1.63 1.63 0 0 0 1.53-.8.72.72 0 0 0 .81.68c.55 0 .46-.77.46-.77a.69.69 0 0 1-.25.08c-.13 0-.26-.07-.31-.3m1.9 1V57l.82-.9 1.35 2.31a1.07 1.07 0 0 0 1 .46h.18l-2-3.27 1.78-1.9h-1.09l-2.12 2.2v-4.14h-.83v7zm19.13-1.4a1.28 1.28 0 0 1-1.25.73 1 1 0 0 1-1.05-.66c-.14-.65.34-.86.9-1a4.56 4.56 0 0 0 1.54-.42 3.28 3.28 0 0 1-.14 1.32m1 .38a4 4 0 0 1 0-.73v-1.36a4.81 4.81 0 0 0-.05-.93c-.23-1-1.15-1.25-2.11-1.2s-1.88.62-1.79 1.75h.82c0-.66.51-.95 1.14-1 .44 0 1 .07 1.15.62s-.22.74-1.07.86c-1.08.15-2.48.32-2.15 1.79a1.66 1.66 0 0 0 1.85 1.36 1.63 1.63 0 0 0 1.53-.8.72.72 0 0 0 .81.68c.55 0 .46-.77.46-.77a.69.69 0 0 1-.25.08c-.13 0-.26-.07-.31-.3m1.83 1V57l.82-.9 1.32 2.29a1.07 1.07 0 0 0 1 .46h.18l-2-3.27L193 53.7h-1.09l-2.12 2.2v-4.14h-.83v7zm6.62-1.34a1.28 1.28 0 0 1-1.25.73 1 1 0 0 1-1.05-.66c-.14-.65.34-.86.9-1a4.56 4.56 0 0 0 1.54-.42 3.28 3.28 0 0 1-.14 1.32m1 .38a4 4 0 0 1 0-.73v-1.42a4.81 4.81 0 0 0-.05-.93c-.23-1-1.15-1.25-2.11-1.2s-1.88.62-1.79 1.75h.82c0-.66.51-.95 1.14-1 .44 0 1 .07 1.15.62s-.22.74-1.07.86c-1.08.15-2.48.32-2.15 1.79a1.66 1.66 0 0 0 1.85 1.36 1.63 1.63 0 0 0 1.53-.8.72.72 0 0 0 .81.68c.55 0 .46-.77.46-.77a.69.69 0 0 1-.25.08c-.13 0-.26-.07-.31-.3m4.32-4.17v2.85a1.56 1.56 0 0 1-1.46 1.68 1 1 0 0 1-1-.71 5.86 5.86 0 0 1 0-.8v-3h-.83v2.94a5.51 5.51 0 0 0 .06 1 1.5 1.5 0 0 0 1.68 1.31 1.82 1.82 0 0 0 1.63-.9s-.07.78.68.77h.21a3.49 3.49 0 0 1-.08-.78v-4.38zm7.76 3.79a1.28 1.28 0 0 1-1.25.73 1 1 0 0 1-1.05-.66c-.14-.65.34-.86.9-1a4.56 4.56 0 0 0 1.54-.42 3.28 3.28 0 0 1-.14 1.32m1 .38a4 4 0 0 1 0-.73v-1.38a4.81 4.81 0 0 0-.05-.93c-.23-1-1.15-1.25-2.11-1.2s-1.88.62-1.79 1.75h.82c0-.66.51-.95 1.14-1 .44 0 1 .07 1.15.62s-.22.74-1.07.86c-1.08.15-2.48.32-2.15 1.79a1.66 1.66 0 0 0 1.85 1.36 1.63 1.63 0 0 0 1.53-.8.72.72 0 0 0 .81.68c.55 0 .46-.77.46-.77a.69.69 0 0 1-.25.08c-.13 0-.26-.07-.31-.3m4.33-4.17v2.85a1.56 1.56 0 0 1-1.46 1.68 1 1 0 0 1-1-.71 5.86 5.86 0 0 1 0-.8v-3h-.83v2.94a5.51 5.51 0 0 0 .06 1 1.5 1.5 0 0 0 1.68 1.31 1.82 1.82 0 0 0 1.63-.9s-.07.78.68.77h.21a3.49 3.49 0 0 1-.08-.78v-4.38zm-65.38-1.9h-5.17v.83h2.12v5.56a.65.65 0 0 0 .71.67h.23a3 3 0 0 1-.11-.82v-5.44h2.2zm54 1.9v5.15h.88v-2.4a2.45 2.45 0 0 1 .22-1.3 1.33 1.33 0 0 1 1.19-.61h.36v-.92a1.87 1.87 0 0 0-1.77 1v-.94zm-142-1.9h-.86v5.71l-3.87-5.71h-.89v6.52c0 .21.1.58.68.58h.29a4.7 4.7 0 0 1-.06-.81v-2.2l-.06-2.78L59.94 58a1.92 1.92 0 0 0 1.45.87z"/></g></svg>