<svg xmlns="http://www.w3.org/2000/svg" viewBox="0 0 204 48" width="204" height="48"><defs><style>.cls-1{fill:#e63739}.cls-2{fill:#6e963c}.cls-3{fill:#007cb9}.cls-4{fill:#00304b}</style></defs><title>Asset 1</title><g id="Layer_2" data-name="Layer 2"><g id="Layer_1-2" data-name="Layer 1"><path class="cls-1" d="M19.55 36.91V24a2.89 2.89 0 0 1-2.47-2.86v-.24a.58.58 0 0 0-.08-.33 1.42 1.42 0 0 0-.54-.35L7 16.55l-.39-.15a2.23 2.23 0 0 0-.88-.21 1.08 1.08 0 0 0-.64.26 2.88 2.88 0 1 1 .72-1.89 1.07 1.07 0 0 0 .31.64 2.29 2.29 0 0 0 .81.44l.38.14 9.39 3.6h.11a1.42 1.42 0 0 0 .63.1h.07a1.4 1.4 0 0 0-.36-.57l-7.36-7.05-.3-.29a2.26 2.26 0 0 0-.73-.57 1.09 1.09 0 0 0-.69 0 2.88 2.88 0 1 1 1.4-1.46 1.08 1.08 0 0 0 0 .71 2.28 2.28 0 0 0 .57.72l.29.28 7.23 7 .09.08a1.43 1.43 0 0 0 .55.34h.08a1.39 1.39 0 0 0-.08-.67l-4-9.37-.16-.38a2.25 2.25 0 0 0-.47-.78A1.08 1.08 0 0 0 13 7.2a2.88 2.88 0 1 1 1.86-.8 1.07 1.07 0 0 0-.24.66 2.29 2.29 0 0 0 .24.89l.16.37 3.93 9.26v.11a1.43 1.43 0 0 0 .37.52h.07a1.39 1.39 0 0 0 .16-.66V7a2.26 2.26 0 0 0-.12-.9 1.08 1.08 0 0 0-.43-.5 2.88 2.88 0 1 1 2 0 1.07 1.07 0 0 0-.49.52 2.29 2.29 0 0 0-.12.91V17.6a1.41 1.41 0 0 0 .14.63.08.08 0 0 0 .08 0 1.42 1.42 0 0 0 .39-.53v-.11l3.93-9.26.18-.33a2.3 2.3 0 0 0 .24-.89 1.07 1.07 0 0 0-.25-.66 2.88 2.88 0 1 1 1.9.75 1.09 1.09 0 0 0-.63.29 2.26 2.26 0 0 0-.46.78l-.16.38-4 9.37a1.41 1.41 0 0 0-.12.63.08.08 0 0 0 .09 0 1.42 1.42 0 0 0 .55-.34l.09-.08 7.24-7 .29-.28a2.29 2.29 0 0 0 .57-.72 1.06 1.06 0 0 0 0-.71 2.88 2.88 0 1 1 1.4 1.48 1.09 1.09 0 0 0-.69 0 2.26 2.26 0 0 0-.73.54l-.3.29-7.32 7.07a1.42 1.42 0 0 0-.36.53.08.08 0 0 0 .07.06 1.43 1.43 0 0 0 .64-.1h.11l9.39-3.6.38-.14a2.27 2.27 0 0 0 .81-.44 1.06 1.06 0 0 0 .31-.64 2.88 2.88 0 1 1 .72 1.89 1.09 1.09 0 0 0-.64-.26 2.23 2.23 0 0 0-.89.21l-.39.15-9.5 3.65a1.4 1.4 0 0 0-.54.35.63.63 0 0 0-.08.39.7.7 0 0 1 0 .12v.06A2.89 2.89 0 0 1 20.37 24v12.91z"/><path class="cls-2" d="M21.31 28.51C27 25.8 33 23.3 39.19 22.2c1 2.66-2.17 4.51-4.14 5.49-4.1 1.79-9.48 2.48-13.74.82m-2.52-.58C13.18 25.2 7.18 22.71 1 21.75c1.78-2.35 5.27-2.17 7.84-1.67a15.32 15.32 0 0 1 10 7.84m-.17.58c-4.27 1.67-9.64 1-13.74-.82-2-1-5.14-2.83-4.13-5.49 6.21 1.1 12.21 3.6 17.88 6.31m2.52-.58a15.32 15.32 0 0 1 10-7.84c2.57-.51 6.06-.68 7.84 1.67-6.2 1-12.19 3.45-17.8 6.18"/><path class="cls-3" d="M39.93 43.53a12.85 12.85 0 0 1-4.62.92 12.7 12.7 0 0 1-7.67-2.69 12.78 12.78 0 0 1-7.69 2.69 12.69 12.69 0 0 1-7.66-2.69 12.79 12.79 0 0 1-7.69 2.69 12.77 12.77 0 0 1-4.6-.91v-2.17a11.48 11.48 0 0 0 4.59 1 11.94 11.94 0 0 0 7.69-2.93 11.85 11.85 0 0 0 7.66 2.93 11.94 11.94 0 0 0 7.69-2.93 11.85 11.85 0 0 0 7.66 2.93 11.57 11.57 0 0 0 4.62-1zm0 3.55a12.88 12.88 0 0 1-4.63.92 12.69 12.69 0 0 1-7.67-2.69A12.79 12.79 0 0 1 19.95 48a12.69 12.69 0 0 1-7.66-2.69A12.8 12.8 0 0 1 4.59 48 12.77 12.77 0 0 1 0 47.08v-2.16a11.46 11.46 0 0 0 4.59 1A11.93 11.93 0 0 0 12.28 43a11.85 11.85 0 0 0 7.66 2.93 11.93 11.93 0 0 0 7.7-2.93 11.85 11.85 0 0 0 7.66 2.93 11.55 11.55 0 0 0 4.62-1zM26.28 36.72a6.21 6.21 0 0 0 1.36-1.61A6.29 6.29 0 0 0 29 36.72 10.19 10.19 0 0 0 35.3 39a10.52 10.52 0 0 0 4.62-1.15v2.22a12.52 12.52 0 0 1-4.62 1 12.24 12.24 0 0 1-7.66-2.81A12.33 12.33 0 0 1 19.95 41a12.24 12.24 0 0 1-7.66-2.81A12.34 12.34 0 0 1 4.59 41 12.43 12.43 0 0 1 0 40.07v-2.22A10.42 10.42 0 0 0 4.59 39a10.28 10.28 0 0 0 6.33-2.28 6.29 6.29 0 0 0 1.36-1.61 6.27 6.27 0 0 0 1.36 1.61A10.19 10.19 0 0 0 19.95 39a10.28 10.28 0 0 0 6.33-2.28"/><path class="cls-4" d="M173.58 11.57v8.62a6.52 6.52 0 0 0 .4 2.46 8.16 8.16 0 0 1-2-.08c-.71-.13-1.33-.41-1.33-1v-.47a4.14 4.14 0 0 1-3.45 1.84c-3.23 0-4-1.82-4-4.56v-6.81h3v6.25c0 1.82.53 2.72 1.95 2.72 1.65 0 2.35-.92 2.35-3.17v-5.8zm1.07 11.07V11.57h2.89v1.54a4.14 4.14 0 0 1 3.46-1.84c3.23 0 4 1.82 4 4.56v5.37a1.81 1.81 0 0 0 .39 1.45 9.78 9.78 0 0 1-1.61 0c-.89-.09-1.83-.35-1.83-1.06v-5.2c0-1.82-.54-2.72-1.95-2.72-1.65 0-2.36.92-2.36 3.17v5.8zm26.76-.94V7.34h3v12.85a5.84 5.84 0 0 0 .39 2.46 9.73 9.73 0 0 1-1.6 0l-.46-.06h-.66c-.43-.19-.66-.4-.71-.71m-1.1-12.02h-3V7.35h3zm-3 1.71h3v11.07h-3zm-.73 3.9h-3a2.07 2.07 0 0 0-2.25-1.91c-1.95 0-2.59 2-2.59 3.6s.62 3.49 2.53 3.49a2.34 2.34 0 0 0 2.42-2.25h2.93a5 5 0 0 1-5.33 4.54 5.37 5.37 0 0 1-5.59-5.68c0-3.45 2.05-6 5.65-6 2.61 0 5 1.37 5.2 4.2m-42.35 1.65c0 1.76.62 3.53 2.68 3.53s2.7-1.78 2.7-3.53-.62-3.55-2.7-3.55-2.68 1.78-2.68 3.55m-3 0c0-3.53 2.25-5.85 5.72-5.85s5.74 2.31 5.74 5.85a5.43 5.43 0 0 1-5.74 5.82c-3.47 0-5.72-2.31-5.72-5.82m-.73-4.62h-3.25a3.3 3.3 0 0 0-3.34-2.68c-3 0-4.15 2.57-4.15 5.25s1.13 5.12 4.15 5.12c2.06 0 3.21-1.41 3.47-3.43h3.25A6.46 6.46 0 0 1 143.8 23c-4.73 0-7.51-3.53-7.51-7.94S139.06 7 143.8 7c3.36 0 6.19 2 6.6 5.5m-41.89 10.11V11.54h2.89v1.54a4.13 4.13 0 0 1 3.45-1.84c3.23 0 4 1.82 4 4.56v5.37a1.81 1.81 0 0 0 .39 1.46 10 10 0 0 1-1.61 0c-.89-.09-1.83-.35-1.83-1.06v-5.2c0-1.82-.54-2.72-1.95-2.72-1.65 0-2.36.92-2.36 3.17v5.8zM70 11.54v8.62a6.48 6.48 0 0 0 .41 2.46 8.09 8.09 0 0 1-2-.08c-.71-.13-1.33-.41-1.33-1v-.48a4.14 4.14 0 0 1-3.45 1.84c-3.23 0-4-1.82-4-4.56v-6.8h3v6.25c0 1.82.54 2.72 1.95 2.72 1.65 0 2.35-.92 2.35-3.17v-5.8zm25.31 11.07l-.46-.06h-.77a.91.91 0 0 1-.6-.66V7.32h3v12.84a5.81 5.81 0 0 0 .39 2.46 10 10 0 0 1-1.6 0m32.45-5.55c0-1.8-.64-3.51-2.61-3.51s-2.68 1.71-2.68 3.53.79 3.55 2.68 3.55 2.61-1.75 2.61-3.57m1.87 5.57c-.89-.07-1.88-.3-2-1a1 1 0 0 1 0-.1v-.1a3.9 3.9 0 0 1-3.26 1.47c-3.34 0-5-2.87-5-5.93s1.65-5.74 4.9-5.74a3.81 3.81 0 0 1 3.28 1.65V7.32h3v12.84a5.64 5.64 0 0 0 .39 2.46 10 10 0 0 1-1.45 0m-29.15-7.68h-3c.17-2.85 2.72-3.7 5.2-3.7 2.21 0 4.86.49 4.86 3.15v5.76a5.68 5.68 0 0 0 .39 2.46s-3.3.29-3.3-1.07a5.08 5.08 0 0 1-3.73 1.37c-2.1 0-3.77-1-3.77-3.32 0-2.51 1.88-3.11 3.77-3.36s3.6-.21 3.6-1.46-.9-1.5-2-1.5-1.91.47-2 1.67m4 3.38v-1.13a6 6 0 0 1-2.53.64c-.94.19-1.8.52-1.8 1.63s.88 1.41 1.86 1.41a2.26 2.26 0 0 0 2.46-2.55M82.2 22.61V7.32h3v8.2l3.83-4h3.6l-4.18 4.07 4.65 7h-1.32c-2.43 0-3.15-1.36-3.15-1.36l-2.21-3.59-1.18 1.16v3.81zm-.7-7.17h-3a2.07 2.07 0 0 0-2.25-1.9c-1.95 0-2.59 2-2.59 3.6s.62 3.49 2.53 3.49a2.34 2.34 0 0 0 2.42-2.25h2.93a5 5 0 0 1-5.33 4.54 5.37 5.37 0 0 1-5.59-5.67c0-3.45 2.06-6 5.65-6 2.61 0 5 1.37 5.2 4.2"/><path id="_Compound_Path_" data-name="&amp;lt;Compound Path&amp;gt;" class="cls-4" d="M52.31 11.1l1.93 5.62h-4zm-7.48 11.53h3.41l1.2-3.41h5.72s.62 1.91.86 2.54c.5 1.32 3.79.87 3.79.87l-5.72-15.3h-3.45z"/><path class="cls-4" d="M58.88 43.15h-2v-11.1h2zm0-13.18h-2v-2.36h2zm7.86 13.51a4.57 4.57 0 0 1-3.6-1.48v1.19h-2.08v-15.6h2.08v5.72a4.45 4.45 0 0 1 3.62-1.61c2.36 0 5.12 1.55 5.12 5.91.01 2.84-1.35 5.87-5.14 5.87zm-.3-9.85c-.78 0-3.32.29-3.34 4 0 3 1.71 4.08 3.32 4.08 2.41 0 3.27-2.16 3.27-4.17 0-2.39-1.28-3.91-3.25-3.91zm9.21 9.52h-2.08v-11.1h2.08v1.66a4.12 4.12 0 0 1 3.6-1.8h.12v2.23h-.13a6.8 6.8 0 0 0-.75 0 2.68 2.68 0 0 0-2.41 1.24 4.82 4.82 0 0 0-.44 2.55v5.28zm18.35 0h-2.06v-11.1H94v1.66a4.12 4.12 0 0 1 3.6-1.8h.12v2.23h-.13a6.8 6.8 0 0 0-.75 0 2.68 2.68 0 0 0-2.41 1.24 4.82 4.82 0 0 0-.43 2.5v5.28zm7.26 0h-2v-11.1h2zm0-13.18h-2v-2.36h2zm7.01 13.51c-3.36 0-5.45-2.29-5.45-6 0-4 2.79-5.79 5.38-5.79a4.87 4.87 0 0 1 4.89 3.94 10 10 0 0 1 .21 2.24V38H105a4.23 4.23 0 0 0 1.07 2.93 3.11 3.11 0 0 0 2.32.91 2.79 2.79 0 0 0 2.77-2.44v-.11l2.12.29v.14h-.11l.1.06a5 5 0 0 1-5 3.7zm-3.17-7h5.95c-.23-3-2.52-3.11-3-3.11-1.6-.02-2.72 1.17-2.95 3.09zm14.68 7.02a6 6 0 0 1-3.44-.9 4.24 4.24 0 0 1-1.66-3v-.11l2.33-.36v.14a2.38 2.38 0 0 0 .77 2 3.09 3.09 0 0 0 2.11.59c1.58 0 2.44-.6 2.44-1.68s-.82-1.36-2.17-1.61l-1-.21c-1.93-.38-4-1-4-3.28 0-2 1.69-3.35 4.32-3.35 2.05 0 4.39 1 4.78 3.65v.12l-2.23.29v-.13a1.82 1.82 0 0 0-.74-1.66 3.23 3.23 0 0 0-2-.62c-1.32 0-2 .76-2 1.47 0 .91 1 1.22 2.52 1.59l1.12.27c1.27.32 3.63.9 3.63 3.23-.09 1.72-1.56 3.56-4.78 3.56zm-35.57-.01a3.64 3.64 0 0 1-3.83-3 2.83 2.83 0 0 1 .29-2.29c.82-1.2 2.68-1.47 4.33-1.7h.14c1.19-.17 1.93-.29 2.22-.72a1.38 1.38 0 0 0 .08-1.11c-.24-1.09-1.34-1.31-2.22-1.31H85a2.87 2.87 0 0 0-2 .79 1.68 1.68 0 0 0-.39 1.29v.06l-1.91.09v-.06a3.35 3.35 0 0 1 .77-2.58 4.5 4.5 0 0 1 3.22-1.32h.51c2.37 0 3.78.91 4.18 2.7a8.17 8.17 0 0 1 .03 1.67v3.88a4.92 4.92 0 0 0 .04 1.12c.09.42.3.63.62.61a1.4 1.4 0 0 0 .51-.17h.07v.08a2.08 2.08 0 0 1-.33 1.4 1 1 0 0 1-.74.35 1.62 1.62 0 0 1-1.8-1.39 3.71 3.71 0 0 1-3.31 1.63zm3.32-6.09a8.58 8.58 0 0 1-2.74.77l-.57.1a2.79 2.79 0 0 0-1.8.9 1.47 1.47 0 0 0-.14 1.17 2 2 0 0 0 2.11 1.4h.14a2.75 2.75 0 0 0 2.69-1.57 5.1 5.1 0 0 0 .3-2.22c.01-.19.01-.37.01-.55zm-42.7 5.75V27.59h2.4V41h7.89a2.28 2.28 0 0 1-2.36 2.16z"/></g></g></svg>