<?xml version="1.0" standalone="no"?>
<!DOCTYPE svg PUBLIC "-//W3C//DTD SVG 20010904//EN"
 "http://www.w3.org/TR/2001/REC-SVG-20010904/DTD/svg10.dtd">
<svg version="1.0" xmlns="http://www.w3.org/2000/svg"
 width="462.000000pt" height="471.000000pt" viewBox="0 0 462.000000 471.000000"
 preserveAspectRatio="xMidYMid meet">
<metadata>
Created by potrace 1.10, written by Peter Selinger 2001-2011
</metadata>
<g transform="translate(0.000000,471.000000) scale(0.100000,-0.100000)"
fill="#007cb9" stroke="none">
<path d="M2080 4588 c-25 -5 -76 -13 -115 -18 -98 -13 -258 -47 -330 -72 -16
-5 -43 -13 -60 -18 -37 -10 -89 -29 -132 -47 -17 -7 -35 -13 -40 -13 -23 0
-375 -197 -393 -220 -3 -4 -12 -11 -21 -16 -22 -12 -87 -65 -183 -149 -100
-87 -124 -111 -211 -211 -70 -80 -83 -96 -152 -189 -20 -27 -41 -51 -45 -53
-4 -2 -8 -9 -8 -15 0 -7 -19 -41 -42 -77 -48 -75 -108 -190 -108 -207 0 -6 -6
-18 -13 -25 -7 -7 -16 -22 -20 -33 -8 -28 -36 -106 -46 -130 -19 -47 -34 -93
-42 -135 -5 -25 -12 -52 -16 -60 -8 -19 -32 -133 -39 -185 -29 -243 -36 -341
-31 -445 10 -204 36 -384 73 -514 8 -26 14 -56 14 -66 0 -10 7 -31 15 -46 8
-16 15 -38 15 -49 0 -11 7 -29 15 -39 8 -11 15 -28 15 -38 0 -10 4 -26 9 -36
6 -9 20 -39 32 -67 47 -107 86 -181 126 -244 24 -36 43 -71 43 -77 0 -7 3 -14
8 -16 10 -4 82 -93 82 -101 0 -8 14 -25 115 -141 89 -102 238 -242 340 -319
96 -72 106 -79 214 -142 28 -16 51 -33 51 -37 0 -5 8 -8 19 -8 10 0 24 -7 31
-15 7 -8 19 -15 26 -15 8 0 42 -14 76 -31 80 -40 118 -56 143 -62 11 -3 45
-15 75 -27 62 -24 147 -46 235 -61 33 -5 73 -13 90 -19 16 -5 89 -16 160 -25
192 -25 526 -12 650 26 17 5 57 13 90 18 88 15 173 37 235 61 30 12 64 24 75
27 22 5 45 15 150 64 39 18 86 39 105 48 19 9 39 20 45 24 21 17 117 77 122
77 3 0 33 20 67 45 204 150 358 296 495 470 87 109 76 95 131 180 66 103 70
109 76 125 7 18 101 217 115 242 5 10 9 26 9 35 0 10 7 31 15 47 8 15 15 35
15 43 0 8 6 29 14 46 20 45 36 111 47 187 5 36 13 76 19 90 13 34 35 283 35
400 0 117 -22 366 -35 400 -6 14 -14 54 -19 90 -11 76 -27 142 -47 187 -8 17
-14 38 -14 46 0 8 -7 28 -15 43 -8 16 -15 37 -15 47 0 9 -4 25 -9 35 -41 77
-111 227 -111 238 0 8 -3 14 -8 14 -4 0 -19 21 -32 48 -14 26 -27 49 -31 52
-3 3 -16 23 -29 45 -13 22 -27 42 -30 45 -3 3 -13 17 -22 32 -29 44 -209 249
-273 309 -33 31 -91 83 -130 115 -38 33 -81 69 -95 82 -14 12 -28 22 -32 22
-3 0 -13 6 -20 13 -42 41 -366 220 -420 232 -15 4 -30 11 -33 16 -4 5 -15 9
-27 9 -11 0 -34 6 -51 13 -63 27 -103 39 -156 48 -30 6 -59 13 -65 17 -13 9
-117 29 -207 42 -37 4 -93 13 -125 19 -69 13 -371 13 -434 -1z m490 -189 c25
-6 77 -14 116 -19 40 -4 80 -12 90 -18 11 -5 41 -12 68 -16 27 -3 54 -10 60
-15 6 -4 22 -11 36 -14 26 -6 101 -31 135 -46 69 -31 241 -115 245 -121 3 -3
12 -10 20 -13 27 -13 171 -110 192 -130 7 -7 25 -20 40 -30 47 -29 203 -177
278 -263 100 -113 140 -164 171 -214 18 -30 39 -61 46 -68 7 -7 13 -20 13 -28
0 -8 4 -14 8 -14 5 0 14 -10 21 -22 6 -13 20 -36 31 -53 11 -16 23 -37 26 -45
19 -45 37 -89 50 -117 8 -18 21 -47 29 -65 7 -18 21 -49 29 -70 9 -20 16 -47
16 -61 0 -14 7 -38 15 -53 8 -16 15 -43 15 -59 0 -17 4 -35 9 -40 11 -12 29
-109 42 -235 12 -111 5 -541 -10 -585 -12 -35 -28 -108 -42 -185 -6 -30 -14
-59 -20 -64 -5 -6 -9 -22 -9 -37 0 -26 -25 -88 -105 -264 -7 -16 -16 -40 -20
-52 -3 -13 -11 -23 -16 -23 -5 0 -9 -6 -9 -14 0 -8 -6 -21 -14 -29 -8 -7 -23
-29 -33 -48 -86 -157 -226 -323 -431 -512 -35 -31 -66 -57 -70 -57 -4 0 -25
-16 -47 -36 -48 -42 -160 -119 -205 -140 -8 -4 -17 -11 -20 -14 -5 -7 -60 -34
-223 -109 -37 -17 -75 -31 -85 -31 -10 0 -22 -4 -28 -9 -5 -6 -27 -14 -49 -20
-22 -6 -60 -15 -85 -21 -25 -7 -58 -16 -75 -22 -16 -5 -59 -14 -95 -19 -36 -4
-85 -13 -110 -18 -58 -13 -481 -13 -540 0 -25 5 -78 14 -119 19 -41 5 -79 14
-85 20 -5 5 -23 10 -38 10 -16 0 -45 7 -65 15 -19 8 -43 15 -52 15 -9 0 -29 7
-45 15 -15 8 -33 15 -39 15 -17 0 -121 44 -125 53 -2 4 -10 7 -17 7 -14 0
-156 69 -165 80 -3 4 -12 10 -20 14 -46 22 -160 100 -205 140 -22 20 -43 36
-47 36 -10 0 -101 83 -198 180 -102 103 -146 152 -182 205 -15 22 -39 53 -53
69 -14 16 -25 35 -25 43 0 7 -3 13 -7 13 -5 0 -21 23 -38 51 -16 28 -40 68
-52 88 -12 20 -22 42 -23 49 0 7 -7 20 -15 28 -8 9 -15 24 -15 33 0 10 -7 24
-15 31 -8 7 -15 22 -15 34 0 11 -7 30 -15 40 -8 11 -15 27 -15 37 0 9 -7 30
-15 45 -8 16 -15 36 -15 45 0 9 -7 30 -15 45 -8 16 -15 42 -15 57 0 16 -5 37
-11 48 -5 11 -14 52 -19 92 -5 40 -14 92 -19 117 -13 60 -13 503 0 560 6 25
14 77 19 116 4 39 13 80 19 90 5 11 13 40 16 66 3 26 10 50 16 53 5 4 9 16 9
28 0 12 7 35 15 51 8 15 15 35 15 43 0 8 6 27 14 41 7 15 28 59 46 97 17 39
36 77 41 85 5 8 14 27 20 43 6 15 15 27 20 27 5 0 9 6 9 13 0 8 13 33 30 55
16 23 30 45 30 48 0 6 64 90 80 104 3 3 17 23 32 45 49 71 301 321 366 362 15
10 36 26 47 36 29 26 148 106 185 123 8 4 17 11 20 14 4 6 176 90 245 121 34
15 109 40 135 46 14 3 30 10 36 14 6 5 33 12 60 15 27 4 57 11 67 16 10 5 50
13 90 18 40 6 90 14 112 19 56 12 490 12 545 0z"/>
<path d="M2261 3770 c-19 -5 -43 -19 -53 -32 -16 -21 -18 -58 -18 -561 0 -368
-3 -545 -11 -559 -10 -18 -24 -7 -174 141 -186 184 -194 188 -258 124 -68 -67
-71 -62 229 -364 147 -147 280 -273 295 -280 22 -9 36 -9 58 0 15 7 148 133
295 280 300 302 297 297 229 364 -64 64 -72 60 -259 -125 -90 -89 -167 -158
-171 -154 -5 4 -9 255 -11 558 -3 611 0 588 -71 608 -20 5 -38 9 -41 9 -3 -1
-20 -5 -39 -9z"/>
<path d="M1253 2061 c-44 -17 -113 -69 -113 -85 0 -5 -8 -18 -17 -29 -16 -17
-18 -43 -18 -222 0 -179 2 -205 18 -222 9 -11 17 -24 17 -30 0 -10 55 -63 67
-63 3 0 15 -8 26 -17 18 -17 83 -18 1067 -18 984 0 1049 1 1067 18 11 9 23 17
27 17 10 0 37 28 71 75 l30 40 0 200 0 200 -32 43 c-40 55 -69 77 -124 96 -38
14 -170 16 -1044 15 -904 -1 -1004 -3 -1042 -18z m1537 -220 c5 -11 10 -64 10
-118 0 -140 -3 -143 -135 -143 -137 0 -135 -2 -135 144 0 74 4 116 12 124 8 8
50 12 125 12 101 0 113 -2 123 -19z m481 9 c17 -10 19 -22 19 -125 0 -146 -2
-149 -151 -143 -128 4 -129 5 -129 144 0 134 0 134 136 134 58 0 114 -5 125
-10z"/>
</g>
</svg>
