<svg xmlns="http://www.w3.org/2000/svg" viewBox="0 0 20 17" width="20" height="17"><defs><style>.cls-1{fill:none}.cls-2{clip-path:url(#clip-path)}.cls-3{fill:#007cba}</style><clipPath id="clip-path"><path class="cls-1" d="M0 0h20v17H0z"/></clipPath></defs><title>Icon Menu</title><g id="Layer_2" data-name="Layer 2"><g id="Layer_1-2" data-name="Layer 1"><g class="cls-2" id="Icon_Menu" data-name="Icon Menu"><g class="cls-2"><path class="cls-3" d="M18.5 3h-17a1.5 1.5 0 0 1 0-3h17a1.5 1.5 0 0 1 0 3m0 7h-17a1.5 1.5 0 0 1 0-3h17a1.5 1.5 0 0 1 0 3m0 7h-17a1.5 1.5 0 0 1 0-3h17a1.5 1.5 0 0 1 0 3"/></g></g></g></g></svg>