<svg xmlns="http://www.w3.org/2000/svg" viewBox="0 0 196 20" width="196" height="20"><title>Asset 1</title><path d="M0 19s24.68-2.79 48-2.79C71.88 16.17 96.71 19 96.71 19v1s-25-2.64-48.67-2.64c-23.35 0-48 2.64-48 2.64v-1zm9.49-4.55H7.37l-3.74-7.6A38.3 38.3 0 0 1 1.89 3h-.12c.1 1.22.14 2.64.17 4L2 14.41h-.76c-.9 0-1.22-.87-1.22-1.85V.18h2.31L6.29 8a27.52 27.52 0 0 1 1.4 3.41h.12c0-.41-.21-2.66-.21-4.23v-7h1.89v14.23zm35.38-1.48l-.49 1.65H35.9V13l5.74-9a13.9 13.9 0 0 1 1-1.47c-.41 0-.93.06-1.63.06h-4.87l.48-1.66h8.17v1.59l-5.68 9.07c-.31.54-.64.95-.89 1.36h6.64zm65.28.39a8.19 8.19 0 0 1-4.21 1.13 5.62 5.62 0 0 1-4.5-1.92 7.7 7.7 0 0 1-1.65-5.37 7.41 7.41 0 0 1 2.46-5.58A5.32 5.32 0 0 1 105.82.4a5.93 5.93 0 0 1 4 1.42l-.95 1.24a4.84 4.84 0 0 0-3-1.07 3.24 3.24 0 0 0-3.06 1.82A6.52 6.52 0 0 0 102 7.3a7.25 7.25 0 0 0 1 4.29 3.92 3.92 0 0 0 3.06 1.28 4.26 4.26 0 0 0 2.11-.53v-4h-2.62l-.33-1.63h4.91v6.65zm10.35-4.2c0 3.28-1.76 5.37-4.5 5.37s-4.48-2.1-4.48-5.47 1.71-5.45 4.44-5.45c3.06 0 4.54 2.43 4.54 5.55zm-2.13.08c0-3.2-.93-4.17-2.42-4.17-1.65 0-2.33 1.18-2.33 3.78 0 3.16.81 4.21 2.42 4.21 1.44 0 2.33-1.11 2.33-3.82zM130 3.9l-3.78 10.43h-1.78l-3.69-10.39 2-.31 2 6.26c.23.7.46 1.53.62 2.23.17-.62.37-1.42.66-2.27l2-5.95h2zm8.64 5.57h-6.3v.25a3.87 3.87 0 0 0 .44 2.06 2.69 2.69 0 0 0 2.37 1.22 3.68 3.68 0 0 0 2.54-1l.73 1.13a5.28 5.28 0 0 1-3.57 1.32c-2.87 0-4.62-2.09-4.62-5.47a5.66 5.66 0 0 1 1.24-4 3.86 3.86 0 0 1 3.12-1.42 3.73 3.73 0 0 1 2.81 1.12c.91.93 1.24 2.09 1.26 4.46v.33zm-2-1.4a3.8 3.8 0 0 0-.64-2.34 1.86 1.86 0 0 0-1.47-.73c-1.44 0-2.17 1.18-2.17 3.05h4.29zm8.88-4.4l-.66 1.9a1.55 1.55 0 0 0-.54-.1 2.16 2.16 0 0 0-2.15 2.11v6.67h-1.9V6.64a6.6 6.6 0 0 0-.39-2.58l1.84-.47a4.24 4.24 0 0 1 .35 1.59v.19a3.4 3.4 0 0 1 2.81-1.8 1.83 1.83 0 0 1 .64.1zm9.07 10.57h-1.88v-7c0-.93-.08-1.26-.33-1.59a1.29 1.29 0 0 0-1.05-.41 4.18 4.18 0 0 0-2.56 1.32v7.66h-1.88V6.54a5.65 5.65 0 0 0-.39-2.46l1.79-.5a3.27 3.27 0 0 1 .35 1.59 9.41 9.41 0 0 1 1.34-1 3.83 3.83 0 0 1 1.92-.52 2.58 2.58 0 0 1 2.43 1.47 3.22 3.22 0 0 1 .25 1.3v7.82zm14.86 0h-1.88V6.83c0-1.18-.37-1.59-1.24-1.59a3.55 3.55 0 0 0-2.42 1.4v7.6h-1.86V6.87c0-1.16-.33-1.59-1.28-1.59a3.56 3.56 0 0 0-2.37 1.2v7.76h-1.88v-7.6a5.63 5.63 0 0 0-.37-2.58l1.85-.43a3 3 0 0 1 .35 1.45 4.22 4.22 0 0 1 2.91-1.47 2.67 2.67 0 0 1 2.46 1.63 4.43 4.43 0 0 1 3.16-1.63c1.61 0 2.64 1 2.64 2.91v7.72zm9.89-4.77h-6.3v.25a3.87 3.87 0 0 0 .44 2.06 2.69 2.69 0 0 0 2.39 1.22 3.68 3.68 0 0 0 2.54-1l.72 1.13a5.28 5.28 0 0 1-3.57 1.32c-2.87 0-4.62-2.09-4.62-5.47a5.66 5.66 0 0 1 1.24-4 3.86 3.86 0 0 1 3.12-1.42 3.73 3.73 0 0 1 2.81 1.12c.91.93 1.24 2.09 1.26 4.46v.33zm-2-1.4a3.8 3.8 0 0 0-.64-2.33 1.86 1.86 0 0 0-1.45-.74c-1.45 0-2.17 1.18-2.17 3.05h4.29zm11.34 6.17h-1.88v-7c0-.93-.08-1.26-.33-1.59a1.28 1.28 0 0 0-1.05-.41 4.17 4.17 0 0 0-2.56 1.32v7.66H181V6.54a5.62 5.62 0 0 0-.39-2.46l1.8-.5a3.27 3.27 0 0 1 .35 1.59 9.41 9.41 0 0 1 1.34-1 3.83 3.83 0 0 1 1.9-.52 2.59 2.59 0 0 1 2.44 1.47 3.25 3.25 0 0 1 .25 1.3v7.82zm7-10.34l-.51 1.34h-2v6.23c0 1.28.31 1.67 1.34 1.67a2.29 2.29 0 0 0 1-.21l.23 1.16a4.12 4.12 0 0 1-1.88.43 2.85 2.85 0 0 1-1.75-.52c-.43-.39-.76-.6-.76-2.1V5.24h-1.24V3.9h1.24a22.5 22.5 0 0 1 .12-2.64l2-.45c-.08.74-.18 2-.18 3.1h2.52zM19.36 9.47H13v.25a3.91 3.91 0 0 0 .44 2.07A2.71 2.71 0 0 0 15.85 13a3.7 3.7 0 0 0 2.55-1l.73 1.14a5.3 5.3 0 0 1-3.59 1.33c-2.88 0-4.65-2.09-4.65-5.5a5.68 5.68 0 0 1 1.24-4 3.87 3.87 0 0 1 3.13-1.43 3.74 3.74 0 0 1 2.82 1.12c.91.93 1.25 2.09 1.27 4.48v.33zm-2-1.41a3.8 3.8 0 0 0-.64-2.35A1.87 1.87 0 0 0 15.23 5c-1.45 0-2.18 1.18-2.18 3.07zM33.7 3.87l-2.91 10.47h-1.84l-1.52-5.66-.64-2.45h-.06s-.42 1.77-.56 2.33l-1.56 5.79h-1.82l-2.85-10.4 1.93-.31 1.33 5.83c.23 1 .54 2.55.54 2.55h.06s.23-1.47.48-2.36l1.58-5.79h2l1.45 5.62c.29 1.12.58 2.43.58 2.53h.08c0-.1.33-1.78.48-2.47l1.29-5.68h2zm19.36 5.6h-6.33v.25a3.91 3.91 0 0 0 .44 2.07A2.71 2.71 0 0 0 49.55 13a3.7 3.7 0 0 0 2.55-1l.73 1.14a5.31 5.31 0 0 1-3.59 1.33c-2.88 0-4.65-2.09-4.65-5.5a5.68 5.68 0 0 1 1.24-4A3.87 3.87 0 0 1 49 3.54a3.74 3.74 0 0 1 2.82 1.12c.91.93 1.24 2.09 1.27 4.48v.33zm-2-1.41a3.81 3.81 0 0 0-.64-2.35 1.87 1.87 0 0 0-1.5-.71c-1.45 0-2.18 1.18-2.18 3.07zm11.79 5.35l-1 1.28a2.37 2.37 0 0 1-1.39-1.49 3.6 3.6 0 0 1-2.95 1.37c-2.08 0-3.36-1.06-3.36-3.05 0-2.41 1.93-3.69 5.29-3.69h.73v-.67c0-1.22-.17-2.05-1.62-2.05a5.74 5.74 0 0 0-3.19 1.18l-.87-1.37a8.18 8.18 0 0 1 4.36-1.37c1.51 0 2.61.56 3 1.66A4.74 4.74 0 0 1 62.08 7c0 .75-.08 2.34-.08 3.86s0 2 .85 2.51zm-2.7-4.25h-.62c-1.43 0-2.3.27-2.72.75a2 2 0 0 0-.54 1.52c0 1.14.58 1.81 1.64 1.81a2.59 2.59 0 0 0 2.18-1.37l.06-2.66zm7.26 5.08a2.8 2.8 0 0 1-1.18.23 1.76 1.76 0 0 1-1.62-.79 2.64 2.64 0 0 1-.39-1.81V3.4a13.52 13.52 0 0 0-.23-3L66 0a12.88 12.88 0 0 1 .19 3v8.41c0 1.1.06 1.35.27 1.54a.68.68 0 0 0 .64.15l.33 1.18zm9.47-.83l-1 1.28a2.37 2.37 0 0 1-1.39-1.49 3.6 3.6 0 0 1-2.94 1.37c-2.07 0-3.36-1.06-3.36-3.05 0-2.41 1.93-3.69 5.29-3.69h.73v-.67c0-1.22-.17-2.05-1.62-2.05a5.74 5.74 0 0 0-3.19 1.18l-.87-1.37a8.18 8.18 0 0 1 4.37-1.36c1.51 0 2.61.56 3 1.66A4.72 4.72 0 0 1 76.12 7c0 .75-.08 2.34-.08 3.86s0 2 .85 2.51zm-2.7-4.25h-.62c-1.43 0-2.3.27-2.72.75a2 2 0 0 0-.54 1.52c0 1.14.58 1.81 1.64 1.81a2.59 2.59 0 0 0 2.18-1.37l.06-2.66zm22.18 5.11h-1.82a4.09 4.09 0 0 1-.19-1 3.47 3.47 0 0 1-2.68 1.14c-2.66 0-4.21-2-4.21-5.27 0-2.24.77-4 2.18-4.87a3.58 3.58 0 0 1 2-.6 3.1 3.1 0 0 1 2.53 1.2V.15l1.91.31v10.31a12.53 12.53 0 0 0 .29 3.49zm-2.22-2.64V6.19a2.66 2.66 0 0 0-2.2-1 2 2 0 0 0-1.81 1.06 5.51 5.51 0 0 0-.54 2.86c0 2 .25 2.57.81 3.15a2 2 0 0 0 1.54.54 2.46 2.46 0 0 0 2.2-1.2zm-8.31 2.64h-1.89v-7c0-.93-.08-1.27-.33-1.6a1.28 1.28 0 0 0-1.06-.41A4.2 4.2 0 0 0 80 6.56v7.7h-1c-.61 0-.93-.46-.93-1.16V6.52a5.66 5.66 0 0 0-.39-2.47l1.81-.5a3.29 3.29 0 0 1 .35 1.6 9.6 9.6 0 0 1 1.35-1 3.85 3.85 0 0 1 1.93-.52 2.6 2.6 0 0 1 2.45 1.47 3.27 3.27 0 0 1 .25 1.31v7.86z" data-name="Layer 1"/></svg>