<svg xmlns="http://www.w3.org/2000/svg" viewBox="0 0 22 19" width="22" height="19"><defs><style>.cls-1{fill:#007cba;}</style></defs><title>Asset 2</title><g id="Layer_2" data-name="Layer 2"><g id="artwork"><path class="cls-1" d="M17.29,11.39v3.93a3.54,3.54,0,0,1-3.54,3.54H3.54a3.41,3.41,0,0,1-2.5-1,3.41,3.41,0,0,1-1-2.5V5.11a3.41,3.41,0,0,1,1-2.5,3.41,3.41,0,0,1,2.5-1h8.64a.38.38,0,0,1,.39.39v.79a.38.38,0,0,1-.39.39H3.54a1.89,1.89,0,0,0-1.39.58,1.89,1.89,0,0,0-.58,1.39V15.32a1.89,1.89,0,0,0,.58,1.39,1.89,1.89,0,0,0,1.39.58H13.75a2,2,0,0,0,2-2V11.39a.38.38,0,0,1,.39-.39h.79a.38.38,0,0,1,.39.39ZM22,.79V7.07a.78.78,0,0,1-1.34.55L18.5,5.46l-8,8a.39.39,0,0,1-.57,0l-1.4-1.4a.39.39,0,0,1,0-.56l8-8L14.38,1.34a.76.76,0,0,1-.23-.55.76.76,0,0,1,.23-.55A.76.76,0,0,1,14.93,0h6.29a.76.76,0,0,1,.55.23A.76.76,0,0,1,22,.79Z"/></g></g></svg>
